<svg width="52" height="52" viewBox="0 0 52 52" fill="none" xmlns="http://www.w3.org/2000/svg">
<g clip-path="url(#clip0_229_662)">
<path d="M26.0672 47.028H43.5024C43.5024 47.028 45.3832 46.6417 45.3832 42.077C45.3832 37.5124 49.4497 17.1289 25.5182 17.1289C1.58671 17.1289 5.77524 40.5114 5.77524 40.5114C5.77524 40.5114 4.67727 47.455 8.14399 47.2923C11.6107 47.1297 26.0672 47.028 26.0672 47.028Z" fill="white"/>
<path d="M46.5626 34.8555H49.6938V40.7418H46.5626V34.8555ZM1.83081 34.8555H4.96203V40.7418H1.83081V34.8555Z" fill="#EA5D5C"/>
<path d="M13.4766 28.2339L37.4995 28.1836L37.5167 36.398L13.4938 36.4483L13.4766 28.2339Z" fill="#4C66AF"/>
<path d="M49.0735 33.4547H46.5014C46.3591 26.8872 43.5836 22.2717 39.0698 19.4455L44.0513 9.14703C44.4977 9.11431 44.9209 8.93519 45.2551 8.63745C45.5894 8.3397 45.816 7.93998 45.8999 7.50028C45.9838 7.06058 45.9203 6.60549 45.7191 6.20559C45.518 5.8057 45.1905 5.48335 44.7875 5.28856C44.3845 5.09376 43.9284 5.03741 43.4901 5.12824C43.0518 5.21907 42.6557 5.452 42.3633 5.79091C42.0709 6.12981 41.8984 6.55575 41.8728 7.00264C41.8471 7.44953 41.9697 7.89241 42.2214 8.26256L37.2704 18.4797C33.6114 16.8627 29.6391 16.078 25.6401 16.1821C21.6254 16.0948 17.6418 16.904 13.9794 18.5509L8.97753 8.38455C9.22698 8.01314 9.34697 7.56982 9.31889 7.12329C9.29081 6.67676 9.11624 6.25196 8.82222 5.91473C8.5282 5.57749 8.13116 5.34664 7.69263 5.25797C7.25409 5.16929 6.79855 5.22774 6.39661 5.42424C5.99466 5.62075 5.66875 5.94435 5.46939 6.34488C5.27003 6.74542 5.20834 7.20053 5.29389 7.63969C5.37944 8.07884 5.60746 8.47751 5.94259 8.77393C6.27773 9.07034 6.70127 9.24793 7.14759 9.27919L12.2307 19.5777C7.7474 22.4039 5.01267 27.0499 4.89067 33.597H2.33893C1.79967 33.597 1.2825 33.8112 0.901193 34.1925C0.519882 34.5738 0.305664 35.091 0.305664 35.6303V40.7134C0.305664 41.2527 0.519882 41.7698 0.901193 42.1511C1.2825 42.5325 1.79967 42.7467 2.33893 42.7467H4.87034V45.2476C4.87034 46.0565 5.19166 46.8322 5.76363 47.4042C6.3356 47.9762 7.11135 48.2975 7.92023 48.2975L43.5023 48.2263C44.3112 48.2263 45.087 47.905 45.6589 47.333C46.2309 46.7611 46.5522 45.9853 46.5522 45.1764V42.6755H49.104C49.6432 42.6755 50.1604 42.4613 50.5417 42.08C50.923 41.6987 51.1372 41.1815 51.1372 40.6423V35.5591C51.1469 35.2836 51.1004 35.009 51.0007 34.7519C50.9009 34.4949 50.7499 34.2609 50.5569 34.064C50.3639 33.8672 50.1328 33.7117 49.8778 33.6069C49.6228 33.5022 49.3491 33.4504 49.0735 33.4547ZM4.34169 40.6626H2.30843V35.5794H4.34169V40.6626ZM44.4986 45.1154C44.4986 45.3851 44.3915 45.6436 44.2009 45.8343C44.0102 46.025 43.7516 46.1321 43.482 46.1321L7.8999 46.2032C7.63027 46.2032 7.37169 46.0961 7.18103 45.9055C6.99038 45.7148 6.88327 45.4562 6.88327 45.1866V34.0037C6.88327 19.7708 19.9978 18.2154 25.6604 18.2052C31.3231 18.195 44.4681 19.6997 44.4986 33.9223V45.1154ZM49.0531 40.5711H47.0199V35.4879H49.0531V40.5711Z" fill="#3F4651"/>
<path d="M20.3439 9.94173L21.3097 9.09793L23.0379 11.792C23.1558 11.9762 23.3182 12.1277 23.5101 12.2325C23.702 12.3374 23.9172 12.3921 24.1359 12.3918H24.2579C24.4977 12.3687 24.7263 12.2795 24.9184 12.1341C25.1104 11.9887 25.2584 11.7928 25.3457 11.5683L26.2403 8.15246L27.1553 11.365V11.4565C27.2423 11.6724 27.3851 11.8612 27.5692 12.0036C27.7532 12.1461 27.9718 12.2369 28.2026 12.2669C28.4334 12.297 28.668 12.265 28.8824 12.1744C29.0967 12.0838 29.2831 11.9378 29.4224 11.7513L30.7338 9.28092L31.3032 9.84007C31.5467 10.081 31.8755 10.2162 32.2181 10.2162H34.7089C34.9785 10.2162 35.2371 10.1091 35.4277 9.91846C35.6184 9.7278 35.7255 9.46922 35.7255 9.19959C35.7255 8.92996 35.6184 8.67138 35.4277 8.48072C35.2371 8.29007 34.9785 8.18296 34.7089 8.18296H32.5434L31.5268 7.16633C31.3925 7.03541 31.2316 6.93482 31.0551 6.87136C30.8786 6.8079 30.6906 6.78304 30.5036 6.79845C30.3167 6.81387 30.1352 6.86921 29.9715 6.96073C29.8078 7.05225 29.6656 7.17783 29.5545 7.32899L28.6294 9.05726L27.4603 4.90941C27.3645 4.66666 27.1979 4.45834 26.9821 4.31149C26.7664 4.16464 26.5115 4.08606 26.2505 4.08594C25.9895 4.08606 25.7346 4.16464 25.5189 4.31149C25.3031 4.45834 25.1365 4.66666 25.0407 4.90941L23.8919 9.30125L22.611 7.26799C22.5129 7.11342 22.3835 6.98109 22.2311 6.87954C22.0788 6.77799 21.9069 6.70945 21.7265 6.67835C21.5459 6.65539 21.3625 6.66971 21.1876 6.72042C21.0128 6.77113 20.8502 6.85715 20.7099 6.97317L19.3171 8.19313H16.7247C16.455 8.19313 16.1964 8.30024 16.0058 8.49089C15.8151 8.68155 15.708 8.94013 15.708 9.20976C15.708 9.47939 15.8151 9.73797 16.0058 9.92863C16.1964 10.1193 16.455 10.2264 16.7247 10.2264H19.5814C19.8588 10.2121 20.125 10.1127 20.3439 9.94173ZM33.7939 27.0923H17.7413C16.4516 27.0751 15.201 27.5346 14.2292 28.3825C13.2574 29.2305 12.6328 30.4074 12.4751 31.6875C12.4069 32.3948 12.4878 33.1087 12.7125 33.7829C12.9372 34.4571 13.3008 35.0766 13.7798 35.6016C14.2588 36.1266 14.8425 36.5453 15.4934 36.8307C16.1442 37.1161 16.8476 37.2619 17.5583 37.2586H33.6109C34.9006 37.2758 36.1512 36.8164 37.123 35.9684C38.0948 35.1204 38.7194 33.9435 38.877 32.6634C38.9453 31.9561 38.8644 31.2422 38.6397 30.568C38.415 29.8938 38.0514 29.2743 37.5724 28.7493C37.0934 28.2243 36.5097 27.8056 35.8588 27.5202C35.208 27.2348 34.5045 27.089 33.7939 27.0923ZM33.7939 35.2253H17.6498C16.928 35.2408 16.2231 35.0063 15.6544 34.5617C15.0856 34.1171 14.688 33.4896 14.5287 32.7854C14.4384 32.3431 14.4475 31.8862 14.5552 31.4478C14.6629 31.0094 14.8666 30.6004 15.1516 30.2502C15.4365 29.9001 15.7957 29.6176 16.2031 29.4231C16.6105 29.2286 17.056 29.127 17.5075 29.1256H33.6516C34.3733 29.1101 35.0783 29.3446 35.647 29.7892C36.2158 30.2338 36.6134 30.8613 36.7726 31.5655C36.8626 32.0061 36.854 32.4612 36.7474 32.8982C36.6409 33.3351 36.439 33.7431 36.1563 34.0929C35.8735 34.4427 35.517 34.7256 35.1121 34.9214C34.7072 35.1171 34.264 35.2209 33.8142 35.2253H33.7939Z" fill="#3F4651"/>
</g>
<defs>
<clipPath id="clip0_229_662">
<rect width="50.9174" height="50.9174" fill="white" transform="translate(0.275146 0.730469)"/>
</clipPath>
</defs>
</svg>
